<?xml version="1.0" encoding="UTF-8" standalone="no"?>
<!DOCTYPE svg PUBLIC "-//W3C//DTD SVG 1.1//EN"
 "http://www.w3.org/Graphics/SVG/1.1/DTD/svg11.dtd">
<!-- Generated by graphviz version 2.40.1 (0)
 -->
<!-- Title: G Pages: 1 -->
<svg width="482pt" height="570pt"
 viewBox="0.00 0.00 482.00 570.00" xmlns="http://www.w3.org/2000/svg" xmlns:xlink="http://www.w3.org/1999/xlink">
<g id="graph0" class="graph" transform="scale(1 1) rotate(0) translate(4 566)">
<title>G</title>
<polygon fill="#ffffff" stroke="transparent" points="-4,4 -4,-566 478,-566 478,4 -4,4"/>
<g id="clust1" class="cluster">
<title>cluster_Global</title>
<path fill="none" stroke="#c0c0c0" d="M20,-8C20,-8 454,-8 454,-8 460,-8 466,-14 466,-20 466,-20 466,-542 466,-542 466,-548 460,-554 454,-554 454,-554 20,-554 20,-554 14,-554 8,-548 8,-542 8,-542 8,-20 8,-20 8,-14 14,-8 20,-8"/>
<text text-anchor="middle" x="237" y="-541.2" font-family="Times,serif" font-size="11.00" fill="#c0c0c0">Global</text>
</g>
<g id="clust2" class="cluster">
<title>cluster_\com</title>
<path fill="none" stroke="#c0c0c0" d="M28,-16C28,-16 446,-16 446,-16 452,-16 458,-22 458,-28 458,-28 458,-514 458,-514 458,-520 452,-526 446,-526 446,-526 28,-526 28,-526 22,-526 16,-520 16,-514 16,-514 16,-28 16,-28 16,-22 22,-16 28,-16"/>
<text text-anchor="middle" x="237" y="-513.2" font-family="Times,serif" font-size="11.00" fill="#c0c0c0">com</text>
</g>
<g id="clust3" class="cluster">
<title>cluster_\com\diakogiannis</title>
<path fill="none" stroke="#c0c0c0" d="M36,-24C36,-24 438,-24 438,-24 444,-24 450,-30 450,-36 450,-36 450,-486 450,-486 450,-492 444,-498 438,-498 438,-498 36,-498 36,-498 30,-498 24,-492 24,-486 24,-486 24,-36 24,-36 24,-30 30,-24 36,-24"/>
<text text-anchor="middle" x="237" y="-485.2" font-family="Times,serif" font-size="11.00" fill="#c0c0c0">diakogiannis</text>
</g>
<g id="clust4" class="cluster">
<title>cluster_\com\diakogiannis\phpresteasy</title>
<path fill="none" stroke="#c0c0c0" d="M44,-32C44,-32 430,-32 430,-32 436,-32 442,-38 442,-44 442,-44 442,-458 442,-458 442,-464 436,-470 430,-470 430,-470 44,-470 44,-470 38,-470 32,-464 32,-458 32,-458 32,-44 32,-44 32,-38 38,-32 44,-32"/>
<text text-anchor="middle" x="237" y="-457.2" font-family="Times,serif" font-size="11.00" fill="#c0c0c0">phpresteasy</text>
</g>
<g id="clust5" class="cluster">
<title>cluster_\com\diakogiannis\phpresteasy\api</title>
<path fill="none" stroke="#c0c0c0" d="M52,-40C52,-40 422,-40 422,-40 428,-40 434,-46 434,-52 434,-52 434,-430 434,-430 434,-436 428,-442 422,-442 422,-442 52,-442 52,-442 46,-442 40,-436 40,-430 40,-430 40,-52 40,-52 40,-46 46,-40 52,-40"/>
<text text-anchor="middle" x="237" y="-429.2" font-family="Times,serif" font-size="11.00" fill="#c0c0c0">api</text>
</g>
<g id="clust6" class="cluster">
<title>cluster_\com\diakogiannis\phpresteasy\api\repositories</title>
<path fill="none" stroke="#c0c0c0" d="M73.5,-342C73.5,-342 414,-342 414,-342 420,-342 426,-348 426,-354 426,-354 426,-402 426,-402 426,-408 420,-414 414,-414 414,-414 73.5,-414 73.5,-414 67.5,-414 61.5,-408 61.5,-402 61.5,-402 61.5,-354 61.5,-354 61.5,-348 67.5,-342 73.5,-342"/>
<text text-anchor="middle" x="243.75" y="-401.2" font-family="Times,serif" font-size="11.00" fill="#c0c0c0">repositories</text>
</g>
<g id="clust7" class="cluster">
<title>cluster_\com\diakogiannis\phpresteasy\api\services</title>
<path fill="none" stroke="#c0c0c0" d="M304,-262C304,-262 407,-262 407,-262 413,-262 419,-268 419,-274 419,-274 419,-322 419,-322 419,-328 413,-334 407,-334 407,-334 304,-334 304,-334 298,-334 292,-328 292,-322 292,-322 292,-274 292,-274 292,-268 298,-262 304,-262"/>
<text text-anchor="middle" x="355.5" y="-321.2" font-family="Times,serif" font-size="11.00" fill="#c0c0c0">services</text>
</g>
<g id="clust8" class="cluster">
<title>cluster_\com\diakogiannis\phpresteasy\api\web</title>
<path fill="none" stroke="#c0c0c0" d="M60,-182C60,-182 383.5,-182 383.5,-182 389.5,-182 395.5,-188 395.5,-194 395.5,-194 395.5,-242 395.5,-242 395.5,-248 389.5,-254 383.5,-254 383.5,-254 60,-254 60,-254 54,-254 48,-248 48,-242 48,-242 48,-194 48,-194 48,-188 54,-182 60,-182"/>
<text text-anchor="middle" x="221.75" y="-241.2" font-family="Times,serif" font-size="11.00" fill="#c0c0c0">web</text>
</g>
<g id="clust9" class="cluster">
<title>cluster_\com\diakogiannis\phpresteasy\api\core</title>
<path fill="none" stroke="#c0c0c0" d="M317.5,-48C317.5,-48 393.5,-48 393.5,-48 399.5,-48 405.5,-54 405.5,-60 405.5,-60 405.5,-162 405.5,-162 405.5,-168 399.5,-174 393.5,-174 393.5,-174 317.5,-174 317.5,-174 311.5,-174 305.5,-168 305.5,-162 305.5,-162 305.5,-60 305.5,-60 305.5,-54 311.5,-48 317.5,-48"/>
<text text-anchor="middle" x="355.5" y="-161.2" font-family="Times,serif" font-size="11.00" fill="#c0c0c0">core</text>
</g>
<!-- \\com\\diakogiannis\\phpresteasy\\api\\repositories\\ClientRepository -->
<g id="node1" class="node">
<title>\\com\\diakogiannis\\phpresteasy\\api\\repositories\\ClientRepository</title>
<polygon fill="none" stroke="#000000" points="418,-386 293,-386 293,-350 418,-350 418,-386"/>
<text text-anchor="middle" x="355.5" y="-365.2" font-family="Courier,monospace" font-size="11.00" fill="#000000">ClientRepository</text>
</g>
<!-- \\com\\diakogiannis\\phpresteasy\\api\\repositories\\AbstractRepository -->
<g id="node2" class="node">
<title>\\com\\diakogiannis\\phpresteasy\\api\\repositories\\AbstractRepository</title>
<polygon fill="none" stroke="#000000" points="207.5,-386 69.5,-386 69.5,-350 207.5,-350 207.5,-386"/>
<text text-anchor="start" x="104.5" y="-371.2" font-family="Courier,monospace" font-size="11.00" fill="#000000">«abstract»</text>
<text text-anchor="start" x="77.5" y="-359.2" font-family="Courier,monospace" font-size="11.00" fill="#000000">AbstractRepository</text>
</g>
<!-- \\com\\diakogiannis\\phpresteasy\\api\\repositories\\ClientRepository&#45;&gt;\\com\\diakogiannis\\phpresteasy\\api\\repositories\\AbstractRepository -->
<g id="edge1" class="edge">
<title>\\com\\diakogiannis\\phpresteasy\\api\\repositories\\ClientRepository&#45;&gt;\\com\\diakogiannis\\phpresteasy\\api\\repositories\\AbstractRepository</title>
<path fill="none" stroke="#000000" d="M292.7346,-368C269.3014,-368 242.3845,-368 217.6643,-368"/>
<polygon fill="none" stroke="#000000" points="217.5866,-364.5001 207.5865,-368 217.5865,-371.5001 217.5866,-364.5001"/>
</g>
<!-- \\com\\diakogiannis\\phpresteasy\\api\\services\\ClientsService -->
<g id="node3" class="node">
<title>\\com\\diakogiannis\\phpresteasy\\api\\services\\ClientsService</title>
<polygon fill="none" stroke="#000000" points="411,-306 300,-306 300,-270 411,-270 411,-306"/>
<text text-anchor="middle" x="355.5" y="-285.2" font-family="Courier,monospace" font-size="11.00" fill="#000000">ClientsService</text>
</g>
<!-- \\com\\diakogiannis\\phpresteasy\\api\\web\\Clients -->
<g id="node4" class="node">
<title>\\com\\diakogiannis\\phpresteasy\\api\\web\\Clients</title>
<polygon fill="none" stroke="#000000" points="387.5,-226 323.5,-226 323.5,-190 387.5,-190 387.5,-226"/>
<text text-anchor="middle" x="355.5" y="-205.2" font-family="Courier,monospace" font-size="11.00" fill="#000000">Clients</text>
</g>
<!-- \\com\\diakogiannis\\phpresteasy\\api\\web\\AbstractRestController -->
<g id="node5" class="node">
<title>\\com\\diakogiannis\\phpresteasy\\api\\web\\AbstractRestController</title>
<polygon fill="none" stroke="#000000" points="221,-226 56,-226 56,-190 221,-190 221,-226"/>
<text text-anchor="middle" x="138.5" y="-205.2" font-family="Courier,monospace" font-size="11.00" fill="#000000">AbstractRestController</text>
</g>
<!-- \\com\\diakogiannis\\phpresteasy\\api\\web\\Clients&#45;&gt;\\com\\diakogiannis\\phpresteasy\\api\\web\\AbstractRestController -->
<g id="edge2" class="edge">
<title>\\com\\diakogiannis\\phpresteasy\\api\\web\\Clients&#45;&gt;\\com\\diakogiannis\\phpresteasy\\api\\web\\AbstractRestController</title>
<path fill="none" stroke="#000000" d="M323.4809,-208C299.1209,-208 264.2957,-208 231.4196,-208"/>
<polygon fill="none" stroke="#000000" points="231.293,-204.5001 221.293,-208 231.2929,-211.5001 231.293,-204.5001"/>
</g>
<!-- \\com\\diakogiannis\\phpresteasy\\api\\core\\Database -->
<g id="node6" class="node">
<title>\\com\\diakogiannis\\phpresteasy\\api\\core\\Database</title>
<polygon fill="none" stroke="#000000" points="391,-146 320,-146 320,-110 391,-110 391,-146"/>
<text text-anchor="middle" x="355.5" y="-125.2" font-family="Courier,monospace" font-size="11.00" fill="#000000">Database</text>
</g>
<!-- \\com\\diakogiannis\\phpresteasy\\api\\core\\Properties -->
<g id="node7" class="node">
<title>\\com\\diakogiannis\\phpresteasy\\api\\core\\Properties</title>
<polygon fill="none" stroke="#000000" points="397.5,-92 313.5,-92 313.5,-56 397.5,-56 397.5,-92"/>
<text text-anchor="middle" x="355.5" y="-71.2" font-family="Courier,monospace" font-size="11.00" fill="#000000">Properties</text>
</g>
</g>
</svg>
