<?xml version="1.0" encoding="UTF-8" standalone="no"?>
<!DOCTYPE svg PUBLIC "-//W3C//DTD SVG 1.1//EN"
 "http://www.w3.org/Graphics/SVG/1.1/DTD/svg11.dtd">
<!-- Generated by graphviz version 2.40.1 (20161225.0304)
 -->
<!-- Title: G Pages: 1 -->
<svg width="515pt" height="786pt"
 viewBox="0.00 0.00 515.00 786.00" xmlns="http://www.w3.org/2000/svg" xmlns:xlink="http://www.w3.org/1999/xlink">
<g id="graph0" class="graph" transform="scale(1 1) rotate(0) translate(4 782)">
<title>G</title>
<polygon fill="#ffffff" stroke="transparent" points="-4,4 -4,-782 511,-782 511,4 -4,4"/>
<g id="clust1" class="cluster">
<title>cluster_Global</title>
<path fill="none" stroke="#c0c0c0" d="M20,-8C20,-8 487,-8 487,-8 493,-8 499,-14 499,-20 499,-20 499,-758 499,-758 499,-764 493,-770 487,-770 487,-770 20,-770 20,-770 14,-770 8,-764 8,-758 8,-758 8,-20 8,-20 8,-14 14,-8 20,-8"/>
<text text-anchor="middle" x="253.5" y="-757.2" font-family="Times,serif" font-size="11.00" fill="#c0c0c0">Global</text>
</g>
<g id="clust2" class="cluster">
<title>cluster_\com</title>
<path fill="none" stroke="#c0c0c0" d="M28,-16C28,-16 479,-16 479,-16 485,-16 491,-22 491,-28 491,-28 491,-730 491,-730 491,-736 485,-742 479,-742 479,-742 28,-742 28,-742 22,-742 16,-736 16,-730 16,-730 16,-28 16,-28 16,-22 22,-16 28,-16"/>
<text text-anchor="middle" x="253.5" y="-729.2" font-family="Times,serif" font-size="11.00" fill="#c0c0c0">com</text>
</g>
<g id="clust3" class="cluster">
<title>cluster_\com\diakogiannis</title>
<path fill="none" stroke="#c0c0c0" d="M36,-24C36,-24 471,-24 471,-24 477,-24 483,-30 483,-36 483,-36 483,-702 483,-702 483,-708 477,-714 471,-714 471,-714 36,-714 36,-714 30,-714 24,-708 24,-702 24,-702 24,-36 24,-36 24,-30 30,-24 36,-24"/>
<text text-anchor="middle" x="253.5" y="-701.2" font-family="Times,serif" font-size="11.00" fill="#c0c0c0">diakogiannis</text>
</g>
<g id="clust4" class="cluster">
<title>cluster_\com\diakogiannis\phpresteasy</title>
<path fill="none" stroke="#c0c0c0" d="M44,-32C44,-32 463,-32 463,-32 469,-32 475,-38 475,-44 475,-44 475,-674 475,-674 475,-680 469,-686 463,-686 463,-686 44,-686 44,-686 38,-686 32,-680 32,-674 32,-674 32,-44 32,-44 32,-38 38,-32 44,-32"/>
<text text-anchor="middle" x="253.5" y="-673.2" font-family="Times,serif" font-size="11.00" fill="#c0c0c0">phpresteasy</text>
</g>
<g id="clust5" class="cluster">
<title>cluster_\com\diakogiannis\phpresteasy\api</title>
<path fill="none" stroke="#c0c0c0" d="M52,-40C52,-40 455,-40 455,-40 461,-40 467,-46 467,-52 467,-52 467,-646 467,-646 467,-652 461,-658 455,-658 455,-658 52,-658 52,-658 46,-658 40,-652 40,-646 40,-646 40,-52 40,-52 40,-46 46,-40 52,-40"/>
<text text-anchor="middle" x="253.5" y="-645.2" font-family="Times,serif" font-size="11.00" fill="#c0c0c0">api</text>
</g>
<g id="clust6" class="cluster">
<title>cluster_\com\diakogiannis\phpresteasy\api\repositories</title>
<path fill="none" stroke="#c0c0c0" d="M73.5,-396C73.5,-396 447,-396 447,-396 453,-396 459,-402 459,-408 459,-408 459,-618 459,-618 459,-624 453,-630 447,-630 447,-630 73.5,-630 73.5,-630 67.5,-630 61.5,-624 61.5,-618 61.5,-618 61.5,-408 61.5,-408 61.5,-402 67.5,-396 73.5,-396"/>
<text text-anchor="middle" x="260.25" y="-617.2" font-family="Times,serif" font-size="11.00" fill="#c0c0c0">repositories</text>
</g>
<g id="clust7" class="cluster">
<title>cluster_\com\diakogiannis\phpresteasy\api\services</title>
<path fill="none" stroke="#c0c0c0" d="M320.5,-316C320.5,-316 423.5,-316 423.5,-316 429.5,-316 435.5,-322 435.5,-328 435.5,-328 435.5,-376 435.5,-376 435.5,-382 429.5,-388 423.5,-388 423.5,-388 320.5,-388 320.5,-388 314.5,-388 308.5,-382 308.5,-376 308.5,-376 308.5,-328 308.5,-328 308.5,-322 314.5,-316 320.5,-316"/>
<text text-anchor="middle" x="372" y="-375.2" font-family="Times,serif" font-size="11.00" fill="#c0c0c0">services</text>
</g>
<g id="clust8" class="cluster">
<title>cluster_\com\diakogiannis\phpresteasy\api\web</title>
<path fill="none" stroke="#c0c0c0" d="M60,-236C60,-236 400,-236 400,-236 406,-236 412,-242 412,-248 412,-248 412,-296 412,-296 412,-302 406,-308 400,-308 400,-308 60,-308 60,-308 54,-308 48,-302 48,-296 48,-296 48,-248 48,-248 48,-242 54,-236 60,-236"/>
<text text-anchor="middle" x="230" y="-295.2" font-family="Times,serif" font-size="11.00" fill="#c0c0c0">web</text>
</g>
<g id="clust9" class="cluster">
<title>cluster_\com\diakogiannis\phpresteasy\api\core</title>
<path fill="none" stroke="#c0c0c0" d="M334,-48C334,-48 410,-48 410,-48 416,-48 422,-54 422,-60 422,-60 422,-216 422,-216 422,-222 416,-228 410,-228 410,-228 334,-228 334,-228 328,-228 322,-222 322,-216 322,-216 322,-60 322,-60 322,-54 328,-48 334,-48"/>
<text text-anchor="middle" x="372" y="-215.2" font-family="Times,serif" font-size="11.00" fill="#c0c0c0">core</text>
</g>
<!-- \\com\\diakogiannis\\phpresteasy\\api\\repositories\\TableRepository -->
<g id="node1" class="node">
<title>\\com\\diakogiannis\\phpresteasy\\api\\repositories\\TableRepository</title>
<polygon fill="none" stroke="#000000" points="431,-602 313,-602 313,-566 431,-566 431,-602"/>
<text text-anchor="middle" x="372" y="-581.2" font-family="Courier,monospace" font-size="11.00" fill="#000000">TableRepository</text>
</g>
<!-- \\com\\diakogiannis\\phpresteasy\\api\\repositories\\AbstractRepository -->
<g id="node3" class="node">
<title>\\com\\diakogiannis\\phpresteasy\\api\\repositories\\AbstractRepository</title>
<polygon fill="none" stroke="#000000" points="207.5,-521 69.5,-521 69.5,-485 207.5,-485 207.5,-521"/>
<text text-anchor="start" x="104.5" y="-506.2" font-family="Courier,monospace" font-size="11.00" fill="#000000">«abstract»</text>
<text text-anchor="start" x="77.5" y="-494.2" font-family="Courier,monospace" font-size="11.00" fill="#000000">AbstractRepository</text>
</g>
<!-- \\com\\diakogiannis\\phpresteasy\\api\\repositories\\TableRepository&#45;&gt;\\com\\diakogiannis\\phpresteasy\\api\\repositories\\AbstractRepository -->
<g id="edge1" class="edge">
<title>\\com\\diakogiannis\\phpresteasy\\api\\repositories\\TableRepository&#45;&gt;\\com\\diakogiannis\\phpresteasy\\api\\repositories\\AbstractRepository</title>
<path fill="none" stroke="#000000" d="M318.8643,-565.8959C310.2159,-562.9331 301.3564,-559.8883 293,-557 262.2508,-546.3719 228.1006,-534.4484 199.7428,-524.5145"/>
<polygon fill="none" stroke="#000000" points="200.5639,-521.0936 189.969,-521.0891 198.2486,-527.6996 200.5639,-521.0936"/>
</g>
<!-- \\com\\diakogiannis\\phpresteasy\\api\\repositories\\ClientRepository -->
<g id="node2" class="node">
<title>\\com\\diakogiannis\\phpresteasy\\api\\repositories\\ClientRepository</title>
<polygon fill="none" stroke="#000000" points="434.5,-548 309.5,-548 309.5,-512 434.5,-512 434.5,-548"/>
<text text-anchor="middle" x="372" y="-527.2" font-family="Courier,monospace" font-size="11.00" fill="#000000">ClientRepository</text>
</g>
<!-- \\com\\diakogiannis\\phpresteasy\\api\\repositories\\ClientRepository&#45;&gt;\\com\\diakogiannis\\phpresteasy\\api\\repositories\\AbstractRepository -->
<g id="edge2" class="edge">
<title>\\com\\diakogiannis\\phpresteasy\\api\\repositories\\ClientRepository&#45;&gt;\\com\\diakogiannis\\phpresteasy\\api\\repositories\\AbstractRepository</title>
<path fill="none" stroke="#000000" d="M309.4263,-522.7645C281.2687,-519.5086 247.709,-515.628 217.8122,-512.171"/>
<polygon fill="none" stroke="#000000" points="218.1627,-508.6883 207.8269,-511.0164 217.3586,-515.642 218.1627,-508.6883"/>
</g>
<!-- \\com\\diakogiannis\\phpresteasy\\api\\repositories\\UserRepository -->
<g id="node4" class="node">
<title>\\com\\diakogiannis\\phpresteasy\\api\\repositories\\UserRepository</title>
<polygon fill="none" stroke="#000000" points="427.5,-494 316.5,-494 316.5,-458 427.5,-458 427.5,-494"/>
<text text-anchor="middle" x="372" y="-473.2" font-family="Courier,monospace" font-size="11.00" fill="#000000">UserRepository</text>
</g>
<!-- \\com\\diakogiannis\\phpresteasy\\api\\repositories\\UserRepository&#45;&gt;\\com\\diakogiannis\\phpresteasy\\api\\repositories\\AbstractRepository -->
<g id="edge4" class="edge">
<title>\\com\\diakogiannis\\phpresteasy\\api\\repositories\\UserRepository&#45;&gt;\\com\\diakogiannis\\phpresteasy\\api\\repositories\\AbstractRepository</title>
<path fill="none" stroke="#000000" d="M316.3676,-482.4329C287.0334,-485.8248 250.5304,-490.0457 218.2401,-493.7795"/>
<polygon fill="none" stroke="#000000" points="217.4505,-490.3474 207.9187,-494.973 218.2546,-497.3011 217.4505,-490.3474"/>
</g>
<!-- \\com\\diakogiannis\\phpresteasy\\api\\repositories\\ReservationRepository -->
<g id="node5" class="node">
<title>\\com\\diakogiannis\\phpresteasy\\api\\repositories\\ReservationRepository</title>
<polygon fill="none" stroke="#000000" points="451,-440 293,-440 293,-404 451,-404 451,-440"/>
<text text-anchor="middle" x="372" y="-419.2" font-family="Courier,monospace" font-size="11.00" fill="#000000">ReservationRepository</text>
</g>
<!-- \\com\\diakogiannis\\phpresteasy\\api\\repositories\\ReservationRepository&#45;&gt;\\com\\diakogiannis\\phpresteasy\\api\\repositories\\AbstractRepository -->
<g id="edge5" class="edge">
<title>\\com\\diakogiannis\\phpresteasy\\api\\repositories\\ReservationRepository&#45;&gt;\\com\\diakogiannis\\phpresteasy\\api\\repositories\\AbstractRepository</title>
<path fill="none" stroke="#000000" d="M318.8643,-440.1041C310.2159,-443.0669 301.3564,-446.1117 293,-449 262.2508,-459.6281 228.1006,-471.5516 199.7428,-481.4855"/>
<polygon fill="none" stroke="#000000" points="198.2486,-478.3004 189.969,-484.9109 200.5639,-484.9064 198.2486,-478.3004"/>
</g>
<!-- \\com\\diakogiannis\\phpresteasy\\api\\services\\ClientsService -->
<g id="node6" class="node">
<title>\\com\\diakogiannis\\phpresteasy\\api\\services\\ClientsService</title>
<polygon fill="none" stroke="#000000" points="427.5,-360 316.5,-360 316.5,-324 427.5,-324 427.5,-360"/>
<text text-anchor="middle" x="372" y="-339.2" font-family="Courier,monospace" font-size="11.00" fill="#000000">ClientsService</text>
</g>
<!-- \\com\\diakogiannis\\phpresteasy\\api\\web\\Clients -->
<g id="node7" class="node">
<title>\\com\\diakogiannis\\phpresteasy\\api\\web\\Clients</title>
<polygon fill="none" stroke="#000000" points="404,-280 340,-280 340,-244 404,-244 404,-280"/>
<text text-anchor="middle" x="372" y="-259.2" font-family="Courier,monospace" font-size="11.00" fill="#000000">Clients</text>
</g>
<!-- \\com\\diakogiannis\\phpresteasy\\api\\web\\AbstractRestController -->
<g id="node8" class="node">
<title>\\com\\diakogiannis\\phpresteasy\\api\\web\\AbstractRestController</title>
<polygon fill="none" stroke="#000000" points="221,-280 56,-280 56,-244 221,-244 221,-280"/>
<text text-anchor="middle" x="138.5" y="-259.2" font-family="Courier,monospace" font-size="11.00" fill="#000000">AbstractRestController</text>
</g>
<!-- \\com\\diakogiannis\\phpresteasy\\api\\web\\Clients&#45;&gt;\\com\\diakogiannis\\phpresteasy\\api\\web\\AbstractRestController -->
<g id="edge3" class="edge">
<title>\\com\\diakogiannis\\phpresteasy\\api\\web\\Clients&#45;&gt;\\com\\diakogiannis\\phpresteasy\\api\\web\\AbstractRestController</title>
<path fill="none" stroke="#000000" d="M339.5328,-262C311.5226,-262 269.6533,-262 231.3646,-262"/>
<polygon fill="none" stroke="#000000" points="231.1982,-258.5001 221.1982,-262 231.1982,-265.5001 231.1982,-258.5001"/>
</g>
<!-- \\com\\diakogiannis\\phpresteasy\\api\\core\\Database -->
<g id="node9" class="node">
<title>\\com\\diakogiannis\\phpresteasy\\api\\core\\Database</title>
<polygon fill="none" stroke="#000000" points="407.5,-200 336.5,-200 336.5,-164 407.5,-164 407.5,-200"/>
<text text-anchor="middle" x="372" y="-179.2" font-family="Courier,monospace" font-size="11.00" fill="#000000">Database</text>
</g>
<!-- \\com\\diakogiannis\\phpresteasy\\api\\core\\Properties -->
<g id="node10" class="node">
<title>\\com\\diakogiannis\\phpresteasy\\api\\core\\Properties</title>
<polygon fill="none" stroke="#000000" points="414,-146 330,-146 330,-110 414,-110 414,-146"/>
<text text-anchor="middle" x="372" y="-125.2" font-family="Courier,monospace" font-size="11.00" fill="#000000">Properties</text>
</g>
<!-- \\com\\diakogiannis\\phpresteasy\\api\\core\\Utils -->
<g id="node11" class="node">
<title>\\com\\diakogiannis\\phpresteasy\\api\\core\\Utils</title>
<polygon fill="none" stroke="#000000" points="399,-92 345,-92 345,-56 399,-56 399,-92"/>
<text text-anchor="middle" x="372" y="-71.2" font-family="Courier,monospace" font-size="11.00" fill="#000000">Utils</text>
</g>
</g>
</svg>
